<?xml version="1.0" ?><!DOCTYPE svg  PUBLIC '-//W3C//DTD SVG 1.1//EN'  'http://www.w3.org/Graphics/SVG/1.1/DTD/svg11.dtd'><svg xmlns="http://www.w3.org/2000/svg" xmlns:xlink="http://www.w3.org/1999/xlink" xmlns:serif="http://www.serif.com/" width="100%" height="100%" viewBox="0 0 512 512" version="1.1" xml:space="preserve" style="fill-rule:evenodd;clip-rule:evenodd;stroke-linejoin:round;stroke-miterlimit:2;"><g transform="matrix(1,0,0,1,0,-1124)"><g id="Icons"><path d="M123.269,1248.47C122.781,1248.41 122.366,1248.37 122.042,1248.36C114.929,1248.1 107.998,1247.43 101.178,1245.28C95.617,1243.52 90.506,1240.63 84.656,1239.89C79.5,1239.25 73.123,1239.35 68.465,1241.85C67.057,1242.6 65.799,1243.63 64.57,1244.7C63.477,1245.65 62.467,1246.73 61.088,1247.18C59.962,1247.55 58.735,1247.53 57.505,1247.53C55.582,1247.55 53.646,1247.54 51.824,1247.93C48,1248.73 44.855,1251.06 41.401,1252.72C40.376,1252.09 39.416,1251.41 38.519,1250.67C36.988,1249.42 35.584,1248.16 34.438,1246.62C32.118,1243.5 30.555,1239.87 29.982,1235.35C29.986,1234.88 29.603,1234.49 29.128,1234.48C28.652,1234.48 28.262,1234.86 28.258,1235.34C27.504,1240.53 28.152,1245.05 29.834,1249.2C30.736,1251.42 31.982,1253.46 33.526,1255.37C32.068,1255.79 30.622,1256.26 29.219,1256.88C21.138,1260.45 15.732,1266.82 12.977,1274.98C11.609,1276.55 11.68,1278.94 13.183,1280.43C18.982,1286.19 26.959,1288.15 34.882,1290.1C41.24,1291.67 47.597,1293.15 51.801,1298.35C52.968,1299.79 53.357,1301.48 53.486,1303.22C53.659,1305.55 53.368,1307.98 53.17,1310.29C52.506,1318.05 51.916,1325.87 52.076,1333.66C52.117,1335.64 51.972,1339.95 52.566,1343.12C52.969,1345.27 53.775,1347.01 54.753,1348.06C55.857,1349.24 57.851,1350.18 60.403,1350.51C63.836,1350.95 68.648,1350.42 70.682,1350.54C79.393,1351.02 88.113,1351.22 94.721,1357.66C101.198,1363.98 103.138,1372.88 105.152,1381.79C107.492,1392.13 109.866,1402.52 116.829,1410.3C124.239,1418.57 136.213,1420.08 147.941,1421.85L148.27,1421.9C148.393,1422.39 148.615,1422.88 148.939,1423.31C158.09,1435.65 161.459,1451.42 161.494,1465.99C161.517,1475.4 162.531,1479.01 161.3,1488.35C160.96,1490.94 159.501,1493.59 157.721,1496.18C154.557,1500.8 150.289,1505.17 147.428,1508.54C145.554,1510.74 143.777,1513.29 142.656,1515.97C142.544,1516.24 142.312,1517.08 142.25,1518.08C142.179,1519.22 142.324,1520.59 142.463,1521.02C143.068,1522.92 144.451,1523.52 145.295,1523.75C148.394,1524.57 152.607,1524.07 155.835,1524.13C161.539,1524.22 166.706,1524.05 172.27,1523.93C172.72,1524.37 173.362,1524.79 174.278,1525.02C175.481,1525.33 180.345,1524.93 181.188,1524.92C187.981,1524.77 194.784,1524.65 201.578,1524.76C202.504,1524.78 208.113,1525.26 209.519,1524.92C211.048,1524.55 211.83,1523.66 212.225,1523.03C213.765,1520.58 214.589,1516.94 214.851,1512.97C215.179,1508.01 214.722,1502.49 214.646,1498.99C214.226,1479.64 211.441,1460.36 212.719,1441.03C212.957,1437.43 213.037,1432.37 214.132,1427.93C214.697,1425.64 215.481,1423.51 216.962,1422.11C216.989,1422.08 217.016,1422.06 217.042,1422.03C217.999,1421.17 219.433,1420.84 220.936,1420.6C224.213,1420.09 227.886,1420.35 230.399,1420.45C245.888,1421.08 261.283,1424.12 276.058,1428.68C287.639,1432.26 298.731,1438.03 310.974,1439.02C320.626,1439.81 329.212,1436.83 337.707,1433.53C339.32,1432.9 340.929,1432.26 342.544,1431.64C342.721,1431.59 342.893,1431.52 343.059,1431.44C348.778,1429.26 354.578,1427.38 360.879,1427.31C365.904,1427.25 369.081,1429.27 372.435,1431.32C375.323,1433.09 378.304,1434.92 382.093,1436.16C385.271,1437.21 387.95,1437.32 390.242,1437.26C391.262,1437.23 392.185,1437.16 393.026,1437.16C393.428,1437.17 393.801,1437.07 394.102,1437.3C394.738,1437.77 395.055,1438.76 395.535,1440.35C396.003,1441.9 396.351,1443.48 396.718,1445.05C397.262,1447.39 397.709,1449.76 398.096,1452.14C400.877,1469.18 392.773,1484.37 384.356,1498.56C382.372,1501.91 377.996,1507.72 375.179,1513.37C372.846,1518.05 371.688,1522.71 372.558,1526.25C372.828,1527.35 373.875,1529.12 376.484,1529.66C378.657,1530.11 383.771,1529.85 384.206,1529.84C388.431,1529.8 397.179,1531.05 403.573,1530.16C407.314,1529.63 410.365,1528.33 412.186,1526.33C413.129,1525.3 413.982,1523.3 414.397,1520.75C414.983,1517.15 414.918,1512.03 415.425,1509.93C418.148,1498.64 422.337,1487.58 427.06,1476.98C432.405,1467.89 439.152,1455.6 440.001,1444.77C440.314,1440.79 439.354,1436.77 438.105,1432.78C437.877,1432.06 437.639,1431.33 437.401,1430.61C443.023,1435.79 448.646,1440.78 454.155,1446.75C463.496,1456.88 468.198,1473.59 469.888,1487.04C471.093,1496.62 467.543,1501.77 460.86,1508.08C457.868,1510.9 454.535,1513.92 452.786,1517.73C452.57,1518.21 451.396,1521.99 451.379,1522.77C451.314,1525.85 453.573,1526.69 454.719,1526.9C457.629,1527.41 461.186,1526.77 464.181,1526.85C470.956,1527.02 477.694,1527.46 484.449,1527.98C486.694,1528.15 488.948,1528.23 491.194,1528.39C491.457,1528.41 493.661,1528.64 494.167,1528.57C496.134,1528.31 496.936,1527.05 497.266,1526.41C499.026,1522.99 498.987,1516.39 498.883,1512.67C498.676,1505.33 497.45,1497.8 495.214,1490.81C493.47,1485.36 490.683,1480.39 490.269,1474.58C489.817,1468.25 491.442,1462.13 492.904,1455.99C494.574,1448.98 496.055,1441.96 495.102,1434.7C494.077,1426.9 491.573,1419.13 487.646,1412.3C484.262,1406.42 479.756,1401.72 477.882,1395C475.153,1385.21 476.719,1373.97 476.097,1363.88C475.341,1351.63 471.386,1338.03 470.685,1325.71C472.557,1320.99 474.416,1315.8 475.721,1310.48C475.998,1311.76 476.264,1313.07 476.52,1314.4C479.051,1327.48 480.488,1342.11 481.441,1350.05C482.422,1358.07 483.047,1367.25 485.672,1375.47C487.512,1381.23 490.291,1386.53 494.772,1390.68C495.467,1391.36 496.581,1391.34 497.259,1390.65C497.937,1389.95 497.923,1388.84 497.228,1388.16C493.441,1384.27 491.251,1379.43 489.875,1374.24C487.739,1366.19 487.608,1357.29 487.043,1349.5C486.34,1340.16 485.487,1321.72 482.611,1307.06C481.191,1299.82 479.187,1293.48 476.689,1289.33C474.768,1280.93 469.084,1273.64 462.753,1268.05C438.43,1246.6 407.599,1252.29 378.446,1257.19C324.596,1266.24 269.044,1263.99 214.853,1259.66C201.12,1258.56 187.372,1257.19 173.607,1256.55C163.669,1256.08 152.83,1256.43 143.301,1253.21C141.724,1252.67 137.414,1251.52 133.017,1250.47C132.071,1249.69 130.942,1248.47 129.795,1247.01C128.513,1245.38 127.159,1243.64 126.091,1241.72C124.541,1238.93 123.367,1236.15 123.587,1233.71C123.703,1233.25 123.422,1232.78 122.961,1232.66C122.5,1232.55 122.031,1232.83 121.915,1233.29C120.51,1236.59 121.053,1241.25 122.356,1245.76C122.625,1246.69 122.933,1247.6 123.269,1248.47ZM468.992,1291.58C467.569,1284.6 462.69,1278.67 457.462,1274.05C446.547,1264.43 434.136,1261.07 421.204,1260.61C407.634,1260.12 393.499,1262.77 379.772,1265.08C325.276,1274.24 269.057,1272.02 214.215,1267.63C200.571,1266.54 186.91,1265.18 173.233,1264.54C162.571,1264.04 150.96,1264.25 140.737,1260.79C137.873,1259.82 124.948,1256.47 121.751,1256.35C113.913,1256.06 106.284,1255.28 98.769,1252.9C93.667,1251.29 89.025,1248.5 83.659,1247.83C80.034,1247.38 75.518,1247.14 72.243,1248.9C70.744,1249.7 69.55,1251.02 68.213,1252.11C66.807,1253.25 65.301,1254.22 63.567,1254.79C61.996,1255.3 60.324,1255.48 58.618,1255.52C56.891,1255.56 55.117,1255.41 53.47,1255.76C49.463,1256.6 46.359,1259.46 42.611,1260.91C39.282,1262.21 35.739,1262.74 32.455,1264.19C26.848,1266.67 23.038,1271.02 20.919,1276.54C25.447,1279.84 31.195,1280.96 36.795,1282.34C44.867,1284.32 52.682,1286.72 58.019,1293.31C62.109,1298.37 61.659,1304.93 61.141,1310.98C60.5,1318.45 59.92,1325.99 60.075,1333.5C60.105,1335 59.978,1338.02 60.276,1340.61C60.341,1341.17 60.526,1341.94 60.646,1342.4C61.137,1342.49 61.999,1342.64 62.617,1342.67C65.742,1342.83 69.429,1342.45 71.127,1342.55C81.777,1343.14 92.227,1344.06 100.304,1351.93C107.897,1359.33 110.594,1369.58 112.955,1380.02C114.991,1389.03 116.73,1398.19 122.788,1404.96C125.683,1408.19 129.539,1409.95 133.775,1411.15C138.602,1412.52 143.912,1413.15 149.133,1413.94C152.915,1414.51 156.636,1415.18 160.147,1416.19C159.607,1414.81 159.135,1413.42 158.734,1412.01C157.221,1406.67 156.632,1401.18 156.885,1395.46C156.851,1394.49 157.611,1393.67 158.581,1393.64C159.551,1393.6 160.366,1394.36 160.4,1395.33C160.994,1400.51 162.376,1405.34 164.42,1409.95C166.309,1414.22 168.846,1418.22 172.119,1421.98C174.678,1424 176.895,1426.55 178.654,1429.8C181.457,1434.98 182,1441.01 183.537,1446.62C185.447,1453.59 188.853,1460.37 189.47,1467.63C190.113,1475.21 187.636,1482.98 186.171,1490.33C184.621,1498.1 181.673,1505.45 180.081,1513.22C179.92,1514.01 179.484,1515.49 179.143,1517.02C180.019,1516.97 180.792,1516.92 181.016,1516.92C187.91,1516.77 194.813,1516.65 201.709,1516.76C202.149,1516.77 204.555,1516.91 206.203,1517.02C206.591,1515.69 206.759,1514.1 206.869,1512.44C207.18,1507.73 206.72,1502.48 206.648,1499.16C206.223,1479.58 203.443,1460.06 204.736,1440.5C204.999,1436.53 205.153,1430.93 206.365,1426.01C207.271,1422.34 208.786,1419.04 211.078,1416.68C214.676,1410.06 215.588,1401.89 214.98,1393.59C214.344,1384.89 212.126,1376.07 209.092,1368.55C208.686,1367.67 209.073,1366.62 209.955,1366.22C210.837,1365.81 211.882,1366.2 212.287,1367.08C217.037,1376.25 220.826,1387.53 221.63,1398.43C221.989,1403.29 221.708,1408.07 220.718,1412.56C224.262,1412.14 228.053,1412.35 230.723,1412.46C246.903,1413.12 262.986,1416.27 278.42,1421.04C289.448,1424.45 299.961,1430.1 311.62,1431.05C320.007,1431.73 327.425,1428.94 334.806,1426.07C335.922,1425.64 337.037,1425.2 338.155,1424.77C339.996,1419.25 342.442,1414.33 345.614,1410.03C349.278,1405.06 353.746,1400.9 358.961,1397.41C359.727,1396.82 360.833,1396.95 361.429,1397.72C362.025,1398.49 361.887,1399.59 361.121,1400.19C356.868,1404.02 353.438,1408.38 350.698,1413.3C349.246,1415.91 348.029,1418.68 347.058,1421.63C351.477,1420.3 356.007,1419.37 360.781,1419.31C366.589,1419.24 370.672,1421.01 374.558,1423.27C377.64,1425.06 380.554,1427.24 384.586,1428.56C388.538,1429.86 391.467,1429.08 393.732,1429.18C395.495,1429.26 397.031,1429.66 398.432,1430.57C400.182,1431.7 401.901,1433.76 403.193,1438.04C403.712,1439.76 404.104,1441.49 404.51,1443.24C405.094,1445.76 405.576,1448.3 405.992,1450.85C409.085,1469.81 400.6,1486.85 391.237,1502.64C389.319,1505.88 385.061,1511.48 382.339,1516.94C381.484,1518.65 380.709,1520.32 380.377,1521.84L384.134,1521.84C387.623,1521.81 394.315,1522.73 400.035,1522.45C401.633,1522.37 403.143,1522.2 404.43,1521.83C405.084,1521.65 405.679,1521.46 406.098,1521.11C406.198,1520.7 406.572,1519.13 406.695,1518.01C407.096,1514.35 407.177,1510 407.648,1508.05C410.503,1496.21 414.889,1484.62 419.847,1473.51C419.908,1473.38 419.977,1473.24 420.053,1473.12C424.864,1464.95 431.258,1453.93 432.026,1444.14C432.26,1441.16 431.409,1438.16 430.471,1435.18C429.311,1431.48 427.982,1427.8 427.473,1424.2C427.245,1422.58 427.107,1420.92 427.046,1419.24C427.035,1419.11 427.03,1418.98 427.033,1418.84C426.881,1413.65 427.447,1408.25 428.318,1403.01C427.801,1396.99 426.575,1391.71 424.762,1387C422.567,1381.28 419.639,1376.4 415.954,1372.16C415.269,1371.47 415.271,1370.36 415.958,1369.67C416.645,1368.99 417.759,1368.99 418.445,1369.67C423.097,1373.73 427.097,1378.56 430.261,1384.49C430.81,1385.51 431.329,1386.58 431.817,1387.67C435.667,1375.82 442.496,1365.41 448.636,1354.51C454.14,1344.75 458.734,1334.02 462.91,1323.61C462.924,1323.58 462.938,1323.54 462.953,1323.5C466.787,1313.94 471.08,1302.11 469.015,1291.7C469.007,1291.66 468.999,1291.62 468.992,1291.58ZM464.527,1340.44C461.796,1346.6 458.852,1352.68 455.606,1358.44C448.837,1370.45 441.027,1381.77 437.977,1395.41C437.392,1398.03 436.81,1400.78 436.319,1403.58C436.3,1403.77 436.268,1403.95 436.224,1404.13C435.484,1408.46 434.969,1412.92 434.992,1417.24C443.339,1425.67 451.811,1432.41 460.036,1441.33C470.429,1452.59 475.945,1471.07 477.826,1486.04C479.411,1498.65 475.144,1505.6 466.351,1513.89C464.663,1515.49 462.737,1517.08 461.315,1518.99C462.371,1518.9 463.413,1518.82 464.387,1518.85C471.298,1519.03 478.173,1519.47 485.065,1520.01C486.986,1520.15 488.914,1520.23 490.838,1520.35C491.195,1517.89 490.94,1514.84 490.886,1512.9C490.7,1506.3 489.604,1499.53 487.594,1493.25C485.656,1487.19 482.75,1481.61 482.289,1475.15C481.779,1468 483.471,1461.07 485.122,1454.14C486.566,1448.08 487.995,1442.02 487.17,1435.75C486.28,1428.97 484.12,1422.22 480.711,1416.29C476.989,1409.82 472.237,1404.54 470.176,1397.15C467.301,1386.83 468.767,1375.01 468.112,1364.37C467.639,1356.71 465.922,1348.51 464.527,1340.44ZM159.02,1424.08C166.494,1436.79 169.46,1451.87 169.494,1465.97C169.518,1475.83 170.521,1479.61 169.232,1489.4C168.744,1493.1 166.87,1496.99 164.321,1500.71C160.993,1505.57 156.531,1510.18 153.522,1513.72C152.833,1514.53 152.151,1515.4 151.541,1516.31C153.075,1516.25 154.626,1516.11 155.968,1516.13C161.259,1516.22 166.081,1516.07 171.201,1515.95C171.569,1514.22 172.062,1512.51 172.244,1511.62C173.832,1503.86 176.779,1496.52 178.325,1488.77C179.648,1482.13 182.079,1475.15 181.499,1468.31C180.923,1461.53 177.605,1455.24 175.822,1448.74C174.444,1443.71 174.131,1438.25 171.618,1433.6C170.424,1431.4 168.937,1429.65 167.228,1428.24C166.968,1428.09 166.723,1427.89 166.5,1427.67C164.289,1426.04 161.748,1424.91 159.02,1424.08Z"/></g></g></svg>