<?xml version="1.0" encoding="iso-8859-1"?>
<!-- Uploaded to: SVG Repo, www.svgrepo.com, Generator: SVG Repo Mixer Tools -->
<svg fill="#000000" height="800px" width="800px" version="1.1" id="Layer_1" xmlns="http://www.w3.org/2000/svg" xmlns:xlink="http://www.w3.org/1999/xlink" 
	 viewBox="0 0 511.388 511.388" xml:space="preserve">
<g>
	<g>
		<path d="M476.276,35.135c-18.116-18.116-42.2-28.096-67.824-28.096c-25.624,0-49.712,9.98-67.828,28.096
			c-0.008,0.012-0.02,0.024-0.032,0.036L35.248,340.487c-0.044,0.04-0.088,0.084-0.128,0.124c-37.4,37.4-37.4,98.252,0,135.652
			c18.12,18.112,42.208,28.092,67.828,28.092s49.708-9.98,67.824-28.092l305.504-305.48
			C513.676,133.383,513.676,72.531,476.276,35.135z M470.62,165.127L165.116,470.603c-16.604,16.604-38.684,25.752-62.168,25.752
			s-45.56-9.148-62.168-25.752c-34.248-34.248-34.28-89.96-0.088-124.248c0.04-0.04,0.084-0.08,0.124-0.12L346.012,41.039
			c0.096-0.08,0.188-0.16,0.272-0.248c16.604-16.604,38.684-25.752,62.168-25.752s45.564,9.148,62.168,25.752
			C504.9,75.067,504.9,130.847,470.62,165.127z"/>
	</g>
</g>
<g>
	<g>
		<path d="M45.872,475.859c-1.884-1.148-4.348-0.552-5.5,1.332l-14.504,23.772l-15.444-15.444l23.772-14.508
			c1.888-1.152,2.484-3.612,1.332-5.5c-1.156-1.888-3.62-2.48-5.5-1.332L1.916,481.335c-1.048,0.64-1.74,1.724-1.888,2.94
			c-0.144,1.22,0.276,2.436,1.144,3.304l22.632,22.632c0.752,0.756,1.772,1.172,2.828,1.172c0.16,0,0.316-0.012,0.476-0.024
			c1.216-0.144,2.3-0.84,2.94-1.888l17.156-28.112C48.352,479.471,47.756,477.011,45.872,475.859z"/>
	</g>
</g>
<g>
	<g>
		<path d="M510.216,23.803L487.584,1.171c-0.868-0.868-2.08-1.268-3.304-1.144c-1.216,0.144-2.3,0.84-2.94,1.888l-17.152,28.112
			c-1.148,1.888-0.552,4.348,1.332,5.5c1.888,1.156,4.348,0.552,5.5-1.332l14.504-23.772l15.44,15.44l-23.772,14.504
			c-1.888,1.152-2.484,3.612-1.332,5.5c0.752,1.236,2.068,1.916,3.416,1.916c0.708,0,1.428-0.188,2.084-0.584l28.112-17.152
			c1.048-0.64,1.74-1.724,1.888-2.94C511.504,25.887,511.084,24.671,510.216,23.803z"/>
	</g>
</g>
<g>
	<g>
		<path d="M377.168,207.759L275.34,105.935c-1.564-1.564-4.092-1.564-5.656,0c-1.564,1.564-1.564,4.092,0,5.656l99,98.996
			L210.592,368.679l-99-98.996c-1.564-1.564-4.092-1.564-5.656,0c-1.564,1.564-1.564,4.092,0,5.656l101.828,101.824
			c0.78,0.78,1.804,1.172,2.828,1.172c1.02,0,2.044-0.392,2.828-1.172l163.748-163.748c0.752-0.748,1.172-1.768,1.172-2.828
			S377.92,208.511,377.168,207.759z"/>
	</g>
</g>
<g>
	<g>
		<path d="M462.128,49.279c-29.504-29.5-77.58-29.584-107.292-0.072l2.72,2.936l3.036,2.624c26.476-26.3,69.488-26.22,95.88,0.168
			c12.808,12.804,19.86,29.86,19.86,48.024s-7.052,35.216-19.86,48.024L150.968,456.459c-12.808,12.808-29.864,19.86-48.028,19.86
			c-18.16,0-35.216-7.052-48.024-19.86c-26.408-26.408-26.464-69.436-0.132-95.916c0.06-0.056,0.112-0.112,0.164-0.172l0.008,0.008
			L332.552,82.803c1.564-1.564,1.564-4.092,0-5.656c-1.564-1.564-4.092-1.564-5.656,0L49.212,354.803
			c-0.032,0.032-0.064,0.064-0.096,0.096c-29.436,29.6-29.372,77.696,0.148,107.216c14.316,14.32,33.38,22.204,53.68,22.204
			c20.304,0,39.368-7.884,53.68-22.204l305.504-305.476c14.32-14.316,22.204-33.38,22.204-53.68S476.448,63.595,462.128,49.279z"/>
	</g>
</g>
</svg>