<?xml version="1.0" ?><svg id="Layer_1" style="enable-background:new 0 0 30 30;" version="1.1" viewBox="0 0 30 30" xml:space="preserve" xmlns="http://www.w3.org/2000/svg" xmlns:xlink="http://www.w3.org/1999/xlink"><g><path d="M23.279,17.88c1.237-1.546,0.995-3.692,0.984-3.767c-0.015-1-0.177-1.487-0.544-1.628   c-0.252-0.099-0.497,0.026-0.604,0.143c-0.657,0.596-1.459,0.691-1.917,0.691c-0.229,0-0.37-0.03-0.37-0.021   c-2.011-0.871-4.284-1.569-5-1.781c-0.324-2.656-2.029-6.196-2.123-6.383l-0.213-0.337c0.542-0.274,0.912-0.633,1.1-1.069   c0.266-0.615,0.064-1.14,0.05-1.171c-0.186-0.58-0.5-0.939-0.933-1.067c-0.353-0.106-0.705-0.028-0.987,0.088   c-0.11-1.023-0.861-1.264-0.871-1.266c-0.647-0.271-1.203-0.274-1.656-0.01c-0.395,0.23-0.615,0.618-0.734,0.936   c-0.79-0.48-1.438-0.603-1.933-0.364C6.824,1.218,6.775,2.139,6.773,2.193c0,1.284,0.987,1.931,1.78,2.183   c-0.146,0.306-0.281,0.67-0.369,0.926c-1.738,0.113-2.394,1.173-2.422,1.22C5.701,6.624,5.696,6.75,5.748,6.856   C6.11,7.595,7.063,8.065,7.543,8.263c-0.228,1.556-0.316,5.159-0.319,5.313c-0.134,2.729,0.859,4.26,1.056,4.536   c0.546,1.319,1.991,2.457,2.504,2.831c-0.101,0.979,0.331,1.588,0.712,1.877l-0.56,2.832c-0.489-0.029-1.346-0.075-1.633-0.035   c-0.319,0.046-0.982,0.14-1,0.627c-0.021,0.575,1.006,0.815,1.079,0.83c0.182,0.038,0.31,0.069,0.396,0.091   c-0.024,0.03-0.047,0.059-0.065,0.081c-0.12,0.149-0.189,0.238-0.227,0.34c-0.087,0.236-0.351,0.956,0.162,1.208   c0.079,0.039,0.165,0.056,0.254,0.056c0.461,0,1.004-0.451,1.111-0.621c0.684-1.084,1.221-0.99,1.396-0.958   c1.305,0.227,1.688-0.189,1.805-0.468c0.041-0.097,0.135-0.32,0.012-0.563c-0.137-0.271-0.452-0.374-0.678-0.428   c-0.143-0.033-0.499-0.078-0.78-0.11l0.49-2.573c0.452-0.19,0.743-0.584,0.89-0.833l1.384,0.042   c0.067,0.885,0.494,1.362,0.759,1.578l-0.174,1.713l-0.121,0.894c-0.193-0.021-0.435-0.052-0.623-0.037   c-1.002,0.013-1.168,0.463-1.177,0.73c-0.015,0.444,0.442,0.935,0.78,0.962c0.025,0.002,0.047,0.005,0.065,0.008   c-0.028,0.049-0.059,0.099-0.081,0.135c-0.1,0.164-0.158,0.261-0.182,0.366c-0.056,0.246-0.225,0.994,0.316,1.178   c0.057,0.02,0.116,0.028,0.175,0.028c0.481,0,1.017-0.572,1.105-0.765c0.539-1.163,1.091-1.138,1.261-1.131   c1.35,0.06,1.65-0.404,1.729-0.695c0.028-0.101,0.094-0.335-0.06-0.561c-0.171-0.252-0.497-0.313-0.728-0.337   c-0.149-0.015-0.52-0.014-0.805-0.009l0.002-0.172c0,0,0,0,0-0.001l0.147-2.224c0.991-0.498,1.268-1.542,1.279-2.259   c3.292-0.369,4.131-2.309,4.301-2.884c0.221-0.443,0.113-0.7-0.015-0.838C23.429,17.954,23.358,17.909,23.279,17.88z    M22.846,18.625c-0.155,0.515-0.905,2.212-4.035,2.448c-0.096,0.007-0.184,0.053-0.244,0.127c-0.062,0.074-0.089,0.17-0.077,0.265   c0.002,0.016,0.174,1.508-1.027,1.974c-0.127,0.049-0.214,0.167-0.224,0.303l-0.162,2.434c0,0.004,0.002,0.008,0.002,0.012   c0,0.003-0.002,0.005-0.002,0.008l-0.007,0.554c-0.002,0.095,0.036,0.187,0.104,0.253s0.154,0.099,0.255,0.101   c0.338-0.009,0.929-0.017,1.078-0.002c0.08,0.009,0.136,0.021,0.173,0.03c-0.052,0.046-0.275,0.198-1.011,0.167   c-0.778-0.028-1.439,0.48-1.921,1.523c-0.046,0.073-0.204,0.218-0.334,0.304c0.005-0.063,0.018-0.148,0.042-0.262   c0.018-0.044,0.06-0.107,0.102-0.177c0.177-0.289,0.36-0.588,0.178-0.852c-0.19-0.277-0.473-0.335-0.64-0.341   c-0.07-0.035-0.196-0.188-0.214-0.218c0.001-0.001,0.091-0.086,0.501-0.092c0.316-0.006,0.858,0.074,0.863,0.075   c0.092,0.012,0.187-0.012,0.261-0.067c0.075-0.056,0.124-0.14,0.137-0.232l0.084-0.618c0.015-0.034,0.029-0.069,0.033-0.108   l0.249-2.453c0.014-0.141-0.063-0.279-0.188-0.346c-0.026-0.015-0.63-0.352-0.598-1.427c0.003-0.093-0.031-0.183-0.095-0.251   c-0.063-0.067-0.151-0.106-0.244-0.109l-1.934-0.059c-0.158-0.015-0.276,0.081-0.333,0.212c-0.003,0.007-0.267,0.606-0.746,0.72   c-0.134,0.032-0.237,0.14-0.263,0.275l-0.6,3.146c-0.019,0.096,0.004,0.195,0.063,0.274s0.147,0.129,0.245,0.14   c0.336,0.034,0.923,0.102,1.069,0.137c0.079,0.019,0.132,0.037,0.168,0.052c-0.058,0.04-0.304,0.162-1.024,0.036   c-0.782-0.134-1.489,0.291-2.101,1.263c-0.055,0.066-0.23,0.189-0.371,0.259c0.013-0.063,0.036-0.146,0.076-0.255   c0.023-0.041,0.073-0.099,0.124-0.162c0.212-0.264,0.433-0.536,0.286-0.822c-0.128-0.248-0.457-0.358-1.075-0.485   c-0.04-0.009-0.099-0.028-0.162-0.053c0.029-0.005,0.061-0.01,0.094-0.015c0.229-0.031,1.221,0.021,1.793,0.061   c0.166,0.021,0.333-0.107,0.368-0.281l0.666-3.372c0.031-0.156-0.053-0.316-0.198-0.386c-0.075-0.035-0.724-0.379-0.527-1.491   c0.024-0.136-0.035-0.273-0.149-0.351c-0.019-0.013-1.884-1.278-2.442-2.681c-0.012-0.029-0.029-0.059-0.048-0.085   c-0.011-0.014-1.074-1.429-0.941-4.123C7.925,13.56,8.026,9.377,8.28,8.106C8.314,7.932,8.213,7.76,8.045,7.705   C7.718,7.599,6.871,7.234,6.488,6.727c0.237-0.254,0.827-0.723,1.956-0.735c0.15-0.002,0.283-0.1,0.329-0.243   c0.176-0.547,0.448-1.225,0.581-1.368c0.089-0.096,0.118-0.233,0.074-0.357C9.383,3.901,9.274,3.813,9.144,3.796   C9.076,3.787,7.474,3.559,7.473,2.21c0-0.005,0.039-0.55,0.365-0.706c0.186-0.09,0.644-0.131,1.634,0.581   c0.101,0.073,0.231,0.087,0.345,0.036c0.113-0.05,0.192-0.156,0.207-0.279c0-0.007,0.092-0.681,0.526-0.935   c0.252-0.148,0.601-0.13,1.059,0.061c0.055,0.02,0.535,0.22,0.407,1.179c-0.019,0.142,0.051,0.281,0.176,0.351   c0.124,0.07,0.28,0.057,0.392-0.033c0.146-0.118,0.597-0.403,0.93-0.303c0.197,0.059,0.353,0.264,0.473,0.636   C13.988,2.8,14.1,3.104,13.951,3.451c-0.153,0.354-0.521,0.644-1.095,0.863c-0.098,0.038-0.174,0.117-0.208,0.216   c-0.033,0.1-0.02,0.209,0.036,0.298l0.411,0.646c0.018,0.038,1.829,3.794,2.062,6.345c0.013,0.144,0.114,0.266,0.253,0.305   c0.028,0.008,2.772,0.791,5.209,1.838c0.065,0.013,1.593,0.316,2.854-0.721c0.038,0.139,0.084,0.409,0.093,0.917   c0.004,0.027,0.303,2.681-1.514,3.909c-0.148,0.101-0.197,0.298-0.112,0.456s0.276,0.228,0.442,0.157   c0.163-0.067,0.357-0.121,0.496-0.144C22.868,18.56,22.852,18.604,22.846,18.625z"/><path d="M10.222,5.236c-0.298,0-0.541,0.243-0.541,0.541s0.243,0.541,0.541,0.541c0.298,0,0.541-0.243,0.541-0.541   S10.521,5.236,10.222,5.236z"/></g></svg>