<?xml version="1.0" ?><!DOCTYPE svg  PUBLIC '-//W3C//DTD SVG 1.1//EN'  'http://www.w3.org/Graphics/SVG/1.1/DTD/svg11.dtd'><svg xmlns="http://www.w3.org/2000/svg" xmlns:xlink="http://www.w3.org/1999/xlink" xmlns:serif="http://www.serif.com/" width="100%" height="100%" viewBox="0 0 512 512" version="1.1" xml:space="preserve" style="fill-rule:evenodd;clip-rule:evenodd;stroke-linejoin:round;stroke-miterlimit:2;"><g transform="matrix(1,0,0,1,-2248,-1686)"><g id="Icons"><path d="M2361.07,1974.85C2361.1,1974.86 2361.13,1974.86 2361.15,1974.86C2363.16,1975.11 2365.03,1975.9 2367.1,1975.79C2369.17,1975.68 2371.17,1975.03 2373.13,1974.26C2374.46,1973.74 2375.77,1973.13 2377.14,1972.87C2378.02,1972.7 2379.02,1972.89 2380.03,1973.06C2381.77,1973.33 2383.52,1973.64 2385.07,1973.61C2385.22,1973.61 2385.36,1973.6 2385.51,1973.6C2385.57,1976.25 2385.7,1978.98 2386.08,1981.44C2387.04,1987.7 2389.61,1994.01 2392.6,1999.57C2395.31,2004.59 2398.88,2009.8 2401.72,2015.26C2404.25,2020.11 2406.23,2025.16 2406.05,2030.49C2406,2031.94 2405.23,2033.14 2404.34,2034.27C2403.02,2035.93 2401.34,2037.4 2399.92,2038.8C2396.92,2041.74 2394.15,2045.78 2392.88,2049.82C2392.56,2050.84 2392.3,2052.85 2394.46,2054.39C2395.18,2054.89 2399.15,2056.21 2399.47,2056.3C2404.08,2057.55 2413.17,2056.6 2418.12,2055.65C2418.8,2055.69 2419.65,2055.72 2419.79,2055.72C2421.93,2055.76 2424.07,2055.72 2426.2,2055.72C2430.5,2055.71 2434.8,2055.69 2439.09,2055.64C2440.95,2055.63 2444.21,2055.84 2445.95,2055.16C2446.6,2054.9 2447.41,2054.38 2448.16,2053.51C2449.2,2052.29 2450.47,2049.75 2450.95,2048.89C2454,2043.55 2454.53,2038.18 2454.02,2032.74C2453.58,2028.03 2452.32,2023.26 2451.63,2018.4C2450.62,2011.34 2451.41,2004.79 2454.93,1998.56C2456.81,1995.24 2458.95,1991.86 2461.46,1988.98L2462.1,1988.25C2464.38,1989.14 2466.58,1990.42 2468.92,1991.11C2474.53,1992.77 2541.42,1999.95 2569.57,1997.3C2573.9,1996.89 2577.61,1996.02 2581.01,1994.64C2581.81,1997.07 2582.77,1999.45 2583.78,2001.84C2584.76,2004.19 2585.84,2006.44 2586.59,2008.71C2587.44,2011.32 2587.81,2013.95 2586.44,2016.89C2585.28,2019.39 2582.89,2020.95 2581.12,2022.98C2579.42,2024.93 2577.73,2026.96 2576.15,2029C2575.61,2029.71 2575.37,2030.61 2574.67,2031.19C2572.91,2032.68 2570.61,2033.48 2568.8,2034.94C2565.2,2037.86 2563.27,2041.94 2562.16,2046.32C2561.8,2047.74 2561.27,2049.59 2561.37,2051.07C2561.45,2052.24 2561.93,2053.36 2562.81,2054.29C2563.74,2055.29 2565.29,2056.06 2566.12,2056.37C2568.51,2057.25 2570.88,2057.6 2573.41,2057.48C2578.96,2057.23 2584.54,2056.64 2590.08,2056.2C2594.16,2055.88 2598.64,2055.05 2601.54,2051.85C2604.94,2048.1 2606.1,2043.56 2606.82,2038.83C2607.36,2035.31 2607.59,2031.67 2609.28,2028.5C2610.6,2026.01 2613.6,2023.84 2616.61,2022.26C2616.87,2027.41 2616.05,2032.64 2614.15,2037.21C2612.96,2040.09 2611,2042.49 2609.1,2044.92C2606.73,2047.93 2604.43,2050.95 2603,2054.48C2602.45,2055.83 2602.68,2056.88 2603.01,2057.66C2603.35,2058.47 2603.92,2059.16 2604.78,2059.64C2605.25,2059.9 2605.9,2060.14 2606.73,2060.17C2607.04,2060.18 2607.87,2060.07 2608.22,2060.02L2610.39,2060.04C2612.94,2060.07 2615.49,2060.17 2618.04,2060.19C2622.7,2060.21 2628.37,2059.96 2633.16,2058.39C2638.92,2056.51 2643.48,2052.84 2644.83,2046.29C2646.36,2038.83 2646.28,2031.15 2647.83,2023.66C2649.16,2017.31 2652.11,2011.14 2653.01,2004.75C2653.53,2001.04 2653.35,1997.32 2653.36,1993.62C2653.36,1990.59 2653.48,1987.57 2654.6,1984.61C2658.81,1973.46 2679.96,1946.89 2682.32,1943.13C2685.27,1938.42 2688.53,1933.66 2690.32,1928.34C2696,1911.46 2696.49,1891.64 2691.48,1873.95C2692.44,1874.29 2693.41,1874.58 2694.39,1874.85C2698.59,1875.98 2702.95,1876.55 2707.17,1876.74C2708.45,1876.8 2709.74,1876.86 2711.03,1876.86C2711.76,1877.42 2712.56,1877.93 2713.39,1878.39C2718.32,1881.08 2724.73,1881.94 2729.88,1882.02L2734.9,1881.82C2736.76,1881.71 2738.76,1881.51 2740.68,1881.07C2742.01,1880.76 2743.3,1880.35 2744.48,1879.77C2745.05,1879.5 2745.3,1878.83 2745.03,1878.26C2744.77,1877.68 2744.09,1877.43 2743.52,1877.7C2742.48,1878.14 2741.35,1878.43 2740.19,1878.64C2738.4,1878.95 2736.53,1879.03 2734.8,1879.04L2730,1878.97C2726.11,1878.71 2721.41,1877.97 2717.45,1876.15C2717.68,1876.09 2717.92,1876.03 2718.15,1875.96C2721.28,1875.04 2724.12,1873.26 2726.2,1870.85C2728.32,1868.38 2729.71,1865.31 2729.86,1861.9C2729.91,1860.59 2729.86,1859.24 2729.49,1857.99C2729.2,1856.97 2728.74,1856.01 2728.02,1855.16C2727.38,1854.41 2726.66,1853.78 2725.87,1853.26C2724.79,1852.56 2723.6,1852.04 2722.34,1851.67C2721.02,1851.29 2719.61,1850.94 2718.2,1850.87C2717.1,1850.8 2716.01,1850.87 2714.96,1851.15C2712.21,1851.89 2709.7,1853.85 2707.93,1856.41C2706.26,1858.84 2705.22,1861.74 2705.15,1864.34C2705.12,1865.14 2705.16,1865.94 2705.26,1866.73C2705.37,1867.5 2705.52,1868.26 2705.72,1869.01L2705.81,1869.31C2702.71,1868.95 2699.55,1868.34 2696.51,1867.42C2693.39,1866.47 2690.39,1865.18 2687.72,1863.41C2686.77,1861.24 2685.72,1859.12 2684.58,1857.07C2682.52,1853.36 2679.81,1850.29 2677.15,1847.02C2672.55,1841.35 2667.8,1835.41 2661.29,1831.81C2654.11,1827.83 2645.3,1825.93 2637.22,1824.89C2625.01,1823.3 2570.3,1823.51 2555.73,1825.41C2545.89,1826.68 2535.73,1826.79 2525.82,1827.06C2514.23,1827.37 2502.68,1828.05 2491.08,1828C2478.76,1827.95 2466.51,1826.73 2454.19,1827.02C2433.75,1827.5 2412.77,1830.83 2393.13,1836.44C2386.11,1838.45 2379.12,1840.83 2372.59,1844.13C2371.83,1844.51 2368.6,1846.63 2367.36,1847.45C2366.68,1847.06 2366.02,1846.48 2365.29,1846C2363.96,1845.11 2362.55,1844.35 2361.08,1843.97C2355.24,1842.48 2349.64,1840.82 2344.07,1838.23C2340.49,1836.56 2337.29,1835.25 2333.7,1833.76C2332.75,1833.36 2329.63,1832.68 2328.36,1836.13C2328.13,1836.75 2327.64,1840.13 2327.64,1840.48C2327.61,1841.64 2327.67,1842.75 2327.78,1843.85C2321.6,1842.07 2315.23,1840.92 2308.93,1839.74C2306.67,1839.32 2304.35,1838.85 2302.06,1838.7C2301.73,1838.68 2299.58,1838.7 2299.15,1838.81C2296.32,1839.49 2296.04,1841.79 2296.05,1842.76C2296.08,1846.1 2298.11,1850.49 2299.15,1853.61C2301.27,1859.93 2303.87,1866.24 2307.63,1871.78C2310.15,1875.48 2313.36,1878.9 2316.49,1882.24C2313.03,1886.07 2310.3,1891.07 2307.47,1894.83C2303.11,1900.64 2295.94,1905.62 2289.45,1908.77C2284.16,1911.34 2279.05,1910.91 2273.37,1910.74C2271.58,1910.69 2268.08,1910.54 2265.47,1911.14C2263.61,1911.57 2262.1,1912.4 2261.13,1913.46C2260.62,1914.01 2260.09,1914.87 2260.01,1916.15C2259.97,1916.71 2260.08,1917.68 2260.38,1918.77C2260.73,1920.05 2261.37,1921.7 2261.46,1922.01C2262.74,1926.51 2264.26,1931 2265.15,1935.59C2265.55,1937.7 2265.81,1940.37 2266.53,1942.74C2267.2,1944.91 2268.23,1946.86 2269.76,1948.31C2271.05,1949.53 2272.58,1950.17 2274.24,1950.53C2275.3,1950.75 2276.48,1950.66 2277.45,1951.16C2279.81,1952.37 2281.72,1954.33 2284,1955.71C2286.7,1957.34 2289.7,1958.42 2292.5,1959.83C2297.25,1962.22 2301.43,1965.46 2305.78,1968.38C2310.69,1971.67 2315.81,1974.55 2321.88,1975.83C2326.14,1976.72 2348.56,1976.07 2355.56,1975.25C2357.3,1975.04 2359.32,1974.65 2361.07,1974.85ZM2680.76,1867.47C2679.81,1865.24 2678.76,1863.06 2677.59,1860.96C2675.76,1857.66 2673.3,1854.97 2670.94,1852.06C2666.98,1847.18 2663.03,1841.91 2657.42,1838.81C2651.09,1835.31 2643.3,1833.74 2636.19,1832.82C2624.29,1831.28 2570.96,1831.5 2556.76,1833.34C2546.66,1834.65 2536.21,1834.78 2526.04,1835.06C2514.36,1835.37 2502.73,1836.05 2491.04,1836C2478.8,1835.95 2466.62,1834.73 2454.38,1835.02C2434.61,1835.48 2414.32,1838.71 2395.33,1844.13C2388.79,1846 2382.28,1848.2 2376.2,1851.27C2375.18,1851.79 2371.94,1854.32 2369.97,1855.15C2368.48,1855.77 2367.19,1855.78 2366.33,1855.58C2364.97,1855.25 2363.61,1854.51 2362.26,1853.61C2361.24,1852.92 2360.25,1852.02 2359.09,1851.72C2352.78,1850.1 2346.72,1848.29 2340.69,1845.48C2338.99,1844.68 2337.37,1843.98 2335.76,1843.29C2335.88,1844.48 2336.09,1845.64 2336.32,1846.83C2338.43,1847.67 2340.51,1848.48 2342.57,1849.33C2346.91,1851.11 2351.09,1852.95 2355.26,1855.03C2359.81,1857.3 2364.23,1859.83 2368.63,1862.95C2369.17,1863.26 2369.35,1863.96 2369.03,1864.51C2368.72,1865.05 2368.02,1865.23 2367.47,1864.91C2362.77,1862.67 2358.13,1861.03 2353.44,1859.58C2349.09,1858.24 2344.75,1857.17 2340.33,1855.99C2337.53,1855.25 2334.74,1854.44 2331.88,1853.61C2331.75,1853.58 2331.61,1853.54 2331.48,1853.5L2331.43,1853.48L2331.4,1853.47L2331.37,1853.46C2323.67,1850.52 2315.51,1849.11 2307.46,1847.61C2306.71,1847.47 2305.95,1847.32 2305.19,1847.18C2305.74,1848.56 2306.35,1849.92 2306.74,1851.08C2308.62,1856.71 2310.9,1862.35 2314.25,1867.29C2317.21,1871.64 2321.23,1875.54 2324.8,1879.42C2327.74,1881.48 2330.58,1883.17 2333.33,1884.56C2338.62,1887.23 2343.5,1888.78 2348.12,1889.16C2354.36,1889.66 2359.98,1888.3 2364.97,1885.39C2365.5,1885.04 2366.2,1885.18 2366.56,1885.7C2366.91,1886.22 2366.78,1886.93 2366.26,1887.28C2359.96,1892.23 2352.24,1894.71 2343.05,1893.95C2338.58,1893.59 2333.79,1892.4 2328.66,1890.27C2326.68,1889.44 2324.68,1888.45 2322.62,1887.31C2319.12,1890.84 2316.63,1895.96 2313.87,1899.64C2308.79,1906.4 2300.51,1912.29 2292.94,1915.97C2286.42,1919.14 2280.15,1918.94 2273.13,1918.74C2272.13,1918.71 2270.44,1918.61 2268.8,1918.73C2268.98,1919.27 2269.12,1919.71 2269.15,1919.83C2270.49,1924.54 2272.07,1929.26 2273,1934.08C2273.31,1935.68 2273.51,1937.65 2273.95,1939.51C2274.22,1940.65 2274.5,1941.78 2275.28,1942.52C2275.47,1942.69 2275.74,1942.67 2275.98,1942.72C2276.35,1942.79 2276.73,1942.84 2277.1,1942.9C2277.64,1942.98 2278.17,1943.08 2278.69,1943.19C2279.74,1942.47 2280.86,1941.82 2282.04,1941.32C2284.06,1940.47 2286.17,1939.89 2288.35,1939.83C2292.97,1939.78 2296.99,1941.16 2301.3,1941.19C2302.9,1941.2 2304.51,1941.07 2306.23,1940.47C2306.79,1940.19 2307.47,1940.43 2307.75,1940.99C2308.02,1941.56 2307.79,1942.24 2307.22,1942.52C2305.38,1943.69 2303.54,1944.3 2301.66,1944.71C2297.58,1945.61 2293.47,1945.1 2289.1,1946.11C2288,1946.35 2287,1946.85 2286.04,1947.43C2286.72,1947.93 2287.41,1948.42 2288.14,1948.86C2290.66,1950.38 2293.48,1951.37 2296.1,1952.68C2301.14,1955.22 2305.61,1958.63 2310.23,1961.73C2314.3,1964.45 2318.49,1966.94 2323.53,1968C2327.46,1968.83 2348.17,1968.06 2354.63,1967.3C2356.16,1967.12 2357.84,1966.89 2359.48,1966.83C2360.97,1964.49 2362.23,1962.11 2363.27,1959.66C2365.34,1954.82 2366.59,1949.8 2366.89,1944.52C2367.35,1936.25 2365.73,1927.47 2361.91,1918.1C2361.64,1917.53 2361.89,1916.85 2362.45,1916.58C2363.02,1916.31 2363.7,1916.55 2363.97,1917.12C2369.17,1926.58 2371.93,1935.7 2372.41,1944.52C2372.73,1950.58 2371.93,1956.48 2370.04,1962.21C2369.44,1964.04 2368.71,1965.84 2367.87,1967.62C2368.66,1967.43 2369.43,1967.12 2370.2,1966.82C2371.43,1966.33 2372.67,1965.83 2373.93,1965.44C2374.95,1963.87 2375.84,1962.29 2376.6,1960.68C2378.18,1957.33 2379.3,1953.97 2379.85,1950.45C2380.81,1944.44 2380.46,1938.24 2379.04,1931.78C2378.86,1931.18 2379.19,1930.54 2379.79,1930.36C2380.39,1930.17 2381.03,1930.51 2381.22,1931.11C2383.89,1937.74 2385.37,1944.31 2385.36,1950.89C2385.35,1955.08 2384.68,1959.23 2383.31,1963.37C2383.09,1964.04 2382.84,1964.71 2382.57,1965.38C2383.39,1965.52 2384.18,1965.62 2384.92,1965.61C2386.31,1965.58 2387.69,1965.52 2389.07,1965.43C2389.13,1965.42 2389.19,1965.42 2389.25,1965.42C2391.85,1965.25 2394.45,1965 2397.05,1964.77C2397.55,1964.73 2401,1964.24 2402,1964.45C2403.14,1964.68 2403.86,1965.24 2404.3,1965.73C2404.9,1966.37 2405.48,1967.41 2405.85,1968.71C2406.23,1970.05 2406.4,1971.87 2406.66,1972.77C2407.92,1976.98 2409.46,1981.12 2411.41,1985.07C2414.2,1990.73 2418.49,1994.84 2422.11,1999.9C2427.23,2007.06 2431.51,2016.23 2432.55,2025.01C2433.4,2032.14 2431.55,2039.94 2427.65,2045.98C2427.26,2046.59 2426.84,2047.16 2426.39,2047.72C2430.6,2047.71 2434.8,2047.69 2439.01,2047.65C2439.78,2047.64 2440.83,2047.72 2441.87,2047.74C2442.03,2047.74 2442.22,2047.73 2442.41,2047.72L2444,2044.93C2446.16,2041.15 2446.41,2037.33 2446.05,2033.48C2445.63,2028.9 2444.38,2024.26 2443.71,2019.53C2442.44,2010.65 2443.55,2002.45 2447.97,1994.63C2450.11,1990.84 2452.57,1987.01 2455.43,1983.72C2455.71,1983.41 2456.5,1982.46 2457.33,1981.64C2457.37,1979.68 2457.48,1977.84 2457.72,1976.12C2458.39,1971.32 2459.64,1967.47 2461.47,1964.45C2464.1,1960.09 2467.63,1957.37 2472.25,1956.32C2472.84,1956.11 2473.49,1956.43 2473.7,1957.02C2473.9,1957.62 2473.58,1958.27 2472.99,1958.47C2469.57,1960.06 2467.25,1962.73 2465.89,1966.55C2464.92,1969.28 2464.65,1972.56 2464.74,1976.53C2464.76,1977.9 2464.85,1979.33 2464.99,1980.85C2467.05,1981.72 2469.07,1982.81 2471.2,1983.44C2476.63,1985.05 2541.51,1991.91 2568.82,1989.33C2577.13,1988.55 2582.62,1985.6 2588.64,1980.04C2590.12,1978.68 2591.58,1977.4 2593.24,1976.34C2591.51,1972.63 2589.98,1968.68 2588.71,1964.48C2586.36,1956.78 2584.76,1948.42 2583.39,1939.65C2583.24,1939.04 2583.62,1938.43 2584.23,1938.28C2584.85,1938.14 2585.46,1938.52 2585.6,1939.13C2587.79,1945.96 2590.16,1952.46 2592.77,1958.57C2594.42,1962.44 2596.21,1966.08 2598.08,1969.54C2599.27,1971.73 2600.49,1973.83 2601.79,1975.82C2602.19,1976.23 2602.59,1976.75 2602.94,1977.37C2603.47,1978.3 2603.91,1979.65 2604.28,1980.28C2606.01,1983.31 2607.8,1986.29 2609.82,1989.15C2614.03,1995.11 2618.49,2000.79 2621.38,2007.55C2622.45,2010.05 2623.26,2012.73 2623.8,2015.48C2623.84,2015.66 2623.88,2015.84 2623.9,2016.01C2625.39,2024.12 2624.6,2032.91 2621.54,2040.28C2620.07,2043.83 2617.74,2046.86 2615.39,2049.86C2614.8,2050.61 2614.21,2051.35 2613.64,2052.11C2615.12,2052.14 2616.61,2052.18 2618.09,2052.19C2621.96,2052.21 2626.69,2052.09 2630.67,2050.79C2633.69,2049.8 2636.28,2048.1 2636.99,2044.67C2638.53,2037.21 2638.44,2029.53 2640,2022.03C2641.29,2015.85 2644.21,2009.86 2645.09,2003.63C2645.56,2000.3 2645.35,1996.94 2645.36,1993.61C2645.36,1989.62 2645.65,1985.67 2647.11,1981.79C2651.46,1970.28 2673.11,1942.77 2675.54,1938.89C2678.16,1934.7 2681.15,1930.52 2682.74,1925.79C2688.85,1907.64 2688.41,1885.73 2680.87,1867.73C2680.83,1867.64 2680.79,1867.56 2680.76,1867.47ZM2615.24,2014.09C2614.9,2012.92 2614.49,2011.79 2614.02,2010.69C2611.36,2004.46 2607.16,1999.26 2603.28,1993.76C2601.12,1990.7 2599.2,1987.51 2597.33,1984.25C2597.24,1984.08 2597.1,1983.8 2596.94,1983.48C2595.92,1984.2 2595.01,1985.05 2594.06,1985.92C2592.08,1987.76 2590.14,1989.35 2588.17,1990.72C2588.96,1993.46 2590.04,1996.09 2591.16,1998.75C2594.17,2005.95 2597.34,2012.44 2593.7,2020.27C2592.21,2023.46 2589.41,2025.65 2587.14,2028.24C2585.55,2030.07 2583.97,2031.97 2582.49,2033.88C2581.59,2035.05 2580.97,2036.35 2579.83,2037.31C2578.02,2038.83 2575.69,2039.66 2573.84,2041.16C2571.61,2042.96 2570.6,2045.59 2569.91,2048.29C2569.85,2048.55 2569.75,2048.82 2569.65,2049.11C2570.76,2049.43 2571.88,2049.54 2573.05,2049.49C2578.51,2049.24 2583.99,2048.66 2589.44,2048.23C2591.58,2048.06 2594.1,2048.15 2595.61,2046.47C2597.9,2043.95 2598.43,2040.8 2598.91,2037.62C2599.59,2033.22 2600.1,2028.72 2602.21,2024.74C2604.52,2020.4 2610.24,2016.43 2615.24,2014.09ZM2415.45,2048.01C2415.86,2047.54 2416.27,2047.12 2416.46,2046.89C2417.96,2045.14 2419.67,2043.59 2420.93,2041.64C2423.85,2037.12 2425.24,2031.29 2424.61,2025.95C2423.72,2018.46 2419.97,2010.66 2415.61,2004.55C2411.73,1999.13 2407.22,1994.67 2404.23,1988.6C2402.09,1984.25 2400.38,1979.69 2399,1975.05C2398.86,1974.59 2398.65,1973.58 2398.46,1972.65C2398.1,1972.7 2397.81,1972.74 2397.72,1972.75C2396.31,1972.87 2394.9,1972.99 2393.49,1973.11C2393.54,1975.52 2393.64,1977.99 2393.99,1980.22C2394.81,1985.6 2397.07,1991 2399.64,1995.78C2402.37,2000.82 2405.96,2006.07 2408.82,2011.56C2411.99,2017.66 2414.27,2024.06 2414.04,2030.76C2413.95,2033.38 2413.03,2035.73 2411.61,2037.86C2409.95,2040.36 2407.55,2042.52 2405.52,2044.51C2404.3,2045.71 2403.11,2047.16 2402.15,2048.72C2405.64,2049.42 2411.54,2048.7 2415.45,2048.01ZM2710.58,1869.72C2711.44,1869.77 2712.29,1869.78 2713.15,1869.75C2714.22,1869.72 2715.3,1869.62 2716.36,1869.35C2718.28,1868.88 2720.05,1867.9 2721.37,1866.5C2722.64,1865.14 2723.55,1863.44 2723.73,1861.49C2723.78,1860.93 2723.83,1860.35 2723.74,1859.79C2723.69,1859.47 2723.64,1859.15 2723.43,1858.89C2723.12,1858.48 2722.74,1858.14 2722.32,1857.87C2721.79,1857.54 2721.22,1857.28 2720.62,1857.07C2719.84,1856.8 2719.03,1856.53 2718.19,1856.4C2717.53,1856.29 2716.87,1856.23 2716.22,1856.37C2714.58,1856.72 2713.11,1857.9 2711.99,1859.36C2710.78,1860.94 2709.93,1862.84 2709.79,1864.58C2709.75,1865.14 2709.74,1865.7 2709.78,1866.25C2709.83,1866.82 2709.91,1867.39 2710.04,1867.96C2710.17,1868.58 2710.35,1869.17 2710.58,1869.72Z"/></g></g></svg>