<?xml version="1.0" ?><svg data-name="Layer 1" id="Layer_1" viewBox="0 0 128 128" xmlns="http://www.w3.org/2000/svg"><title/><path d="M51.14088,57.1827c.88086.54388.68939.65869,1.30212,1.417a15.82385,15.82385,0,0,0,1.76941,2.229c.57446.48254,1.44769.59747,2.02216,1.09534.73541.64343,1.03406,1.64679,1.69287,2.40509a10.89355,10.89355,0,0,0,5.2085,2.972c1.869.58215,1.394.94214,2.58124,2.02209a8.729,8.729,0,0,0,3.04089,1.241,5.48787,5.48787,0,0,0,.858.17615h.00757a7.01792,7.01792,0,0,1,.4519-1.01111c1.21027-2.22125,3.82214-3.217,5.87494-3.4162a13.03333,13.03333,0,0,1,1.71576-.023c1.057.03833,1.45532.0307,1.7923-.26807a3.01022,3.01022,0,0,0,.59753-1.02637c.07666-.17615.15314-.36.23749-.54388a20.75763,20.75763,0,0,1,1.24841-2.16,10.48627,10.48627,0,0,0,1.35577-2.62732,5.37051,5.37051,0,0,0,.03064-1.74628,5.45691,5.45691,0,0,1-3.14807-1.56262c-1.07239-1.17194-1.50128-2.29022-2.903-3.14819-.93451-.56683-1.37109-.697-1.83844-1.74634a16.583,16.583,0,0,0-1.662-3.263,19.78317,19.78317,0,0,1-1.50128-2.589c-1.50122-2.94122-5.46143-4.7796-8.13458-6.61023A8.76335,8.76335,0,0,1,61.872,37.689c-.75061-.91925-.75824-1.66217-1.61615-2.38983-.91919-.77362-.97278-.58978-1.08771-1.38641A23.97413,23.97413,0,0,1,58.946,29.5928c.0307-1.126.00769-2.26733.138-3.36273.14551-1.15662.36-3.40082.94983-4.31226,1.11829-1.7005,2.51227-1.27155,4.12842-1.70807.84265-.22986,1.36346-.80432,2.32092-.80432a1.4018,1.4018,0,0,1,.25281.01532,1.35194,1.35194,0,0,0,1.53961-1.68518c-.28351-.95746-.73541-1.89191-.91919-2.834-.37537-1.96094-1.66217-2.68854-2.47418-4.35071-.63562-1.30981-.36761-2.9184-1.87653-3.58466a8.07782,8.07782,0,0,0-2.75751-.18384c-1.49365-.092-1.12592-.39832-2.1676-1.13361-1.30212-.92688-2.87238-.93457-4.13623-1.99927-1.11835-.94977-.69708-2.834-2.29022-2.63489-.8349.10718-1.57019.88849-2.29791,1.26379a3.88179,3.88179,0,0,1-2.77277.429c-1.95325-.09955-2.5813.64349-4.12091,1.60864-1.27148.79651-2.68085.79651-3.95239,1.4859-1.1106.60516-1.81531,1.73108-2.788,2.48938A8.39,8.39,0,0,1,30.89656,9.8309c-1.38647.06891-2.34393.71228-3.59247,1.011a4.669,4.669,0,0,0-1.47833.39832c-.605.31409-.68927.78131-1.42456.91925-1.59326.29865-2.47406-1.06482-3.66132.57446-.88855,1.2254-.58984,2.765-2.17542,3.44684-.65863.27563-1.371-.03064-1.99908.19916-.6051.22974-.8656,1.02625-1.55493,1.2561-2.68854.91144-6.595-.99579-4.85626,3.36261.49023,1.24847.55145,1.67749,1.80011,2.28253l.02295.01532a2.04576,2.04576,0,0,1,.42889,3.40094c-1.3252,1.103-2.64258,2.0144-2.12939,3.16333.8349,1.846,2.589,1.60858,2.22131,3.95239-.21448,1.36346-.80426,3.424.22986,4.47321.87311.88855,2.81866,1.32513,4.343,1.63159a1.34046,1.34046,0,0,1,1.057,1.57019v.03064a1.35421,1.35421,0,0,0,1.394,1.60083,5.19767,5.19767,0,0,0,2.59668-.45953,6.53594,6.53594,0,0,0,1.67743-2.229,7.22851,7.22851,0,0,1,2.78046-2.91833c2.903-1.47058,4.69537.27582,7.35321,1.218,1.71576.6051,3.61536-.046,5.132,1.02637a8.94982,8.94982,0,0,1,2.29022,2.91071,13.29157,13.29157,0,0,1,1.11835,2.43579,19.01784,19.01784,0,0,0,4.34308,7.13873,25.838,25.838,0,0,1,2.15228,3.29358C49.70857,56.593,49.94593,56.44741,51.14088,57.1827Z"/><path d="M114.2104,70.64828c-2.99493-2.31323-6.5874-3.14032-10.13367-4.45782-1.92261-.72009-3.9295-1.24854-5.8291-1.95319a10.75431,10.75431,0,0,1-2.9566-1.15662c-1.11072-1.03412-.55914-3.10986-1.73108-4.14386-1.29456-1.14893-3.01025-.09961-4.46552.09192a6.72577,6.72577,0,0,1-2.28259-.09961,6.31657,6.31657,0,0,1-.22217,1.76166,14.02257,14.02257,0,0,1-1.80762,3.65369,16.42343,16.42343,0,0,0-1.02637,1.75409c-.069.14545-.13794.29871-.19916.43665a6.20608,6.20608,0,0,1-1.57025,2.35913,5.84463,5.84463,0,0,1-4.458,1.22552,9.14574,9.14574,0,0,0-1.21771.00769,4.585,4.585,0,0,0-2.52777,1.00342,2.29891,2.29891,0,0,1,1.73877,1.394c.59747,1.63916.697,3.83746,2.82635,4.21277,2.35156.41357,4.15912-2.66553,6.27319-1.02637,1.83844,1.41705.65881,3.868,3.1712,5.05536,1.24078.58972,2.45874.31409,3.68427.605,1.55481.36,1.42468,1.45544,2.38214,2.63495.75824.94214,1.98389,1.28687,2.67316,2.22131.56683.766,1.218,3.3396.73529,4.32764-.222.429-.94208.34473-1.15662.82727-.17615.383.16095.68176.13794,1.01117a5.6771,5.6771,0,0,1-.44421,2.44336c-.61279,1.19495-.92682,1.30212-.7124,2.75745a18.47348,18.47348,0,0,1,.27576,2.77277c0,1.08771-.19153,1.87659.92676,2.32855a2.65144,2.65144,0,0,0,2.23676-.38293c.87311-.68176.63562-1.7771,1.18719-2.5813.54382-.79663,1.30975-.98047,1.777-1.846.31409-.56683.6358-1.44.89624-1.99915.51318-1.103.1532-1.96082.51318-3.1098.65106-2.02991,2.68854-.75067,3.89111-1.80774.93445-.81952.38293-4.2511-.069-5.20093a8.64592,8.64592,0,0,0-3.89111-4.03656c-1.2868-.71234-3.40851-1.63147-2.3974-3.66132.337-.6817,1.40161-1.21783,1.87659-1.89191.59747-.85022.39832-1.17194,1.55493-1.62384a6.37837,6.37837,0,0,1,3.31659-.43665c1.034.21448,1.0647.858,1.89191,1.36346.77362.47485,1.50134.09955,2.25964.44427.84247.39069,1.02637,1.47827,1.58551,2.14465a3.126,3.126,0,0,0,4.09021.69708C120.42988,76.63052,116.03327,72.05776,114.2104,70.64828Z"/><path d="M34.377,70.56973c.30151-1.55817-.40393-3.43744-.51489-5.03076-.168-2.41174-1.36243-2.60114-2.71033-4.26434-1.476-1.82117-.9248-2.87329-3.64264-2.86749a9.75979,9.75979,0,0,0-5.384,1.42169c-2.06384.99677-4.76355-.06354-6.515,1.619-1.07526,1.03284-1.14783,3.63953-2.52576,4.0542.08563,1.16681-.51562,1.30573-.83594,2.184a6.15143,6.15143,0,0,0-.5155,2.879c.10889,2.03552,1.7002,3.50519,2.53448,5.40979a12.92423,12.92423,0,0,1,.88165,2.75452c.363,1.57178,1.64331,1.70007,2.17438,2.92969,1.19623,2.76984-3.876,1.24567-3.90454,4.02563-.02655,2.59015,3.92407,1.78168,3.59644,3.97369-.32489,2.17358-2.98163,1.44537-.8855,3.58948,3.27112,3.346,6.26556,3.06274,9.80157.2865,1.356-1.0647,1.65167-2.5412,3.31952-3.16272,2.00763-.74811,2.70129-.37054,3.41937-2.57593a16.67445,16.67445,0,0,0,.68506-4.55646c.08185-1.75305,1.347-2.74463,1.3595-4.38788.01282-1.67853-1.72375-2.79541-1.87018-4.22729C32.70381,73.24716,34.12019,71.89688,34.377,70.56973Z"/><path d="M89.02864,94.61795c-.5531-.99939-.27991-1.74023-1.42529-2.00146-1.06287-.24237-1.9248.72742-2.83319,1.14252a29.63357,29.63357,0,0,0-4.32245,1.83368c-.524.34943-.692.95056-1.32245,1.21191-1.04279.43237-2.14453-.25818-3.279-.17883-3.14575.22021-7.01642,4.10205-10.27258,2.72034-.84821-.35992-1.30457-1.27338-2.1637-1.56812-1.65149-.56653-5.1756-.30475-6.77393-.01746a4.88109,4.88109,0,0,0-2.36511,1.01294c-.93927.69165-1.87274,1.79248-3.132,2.00653s-1.5-.64044-2.69836.31274c-1.52271,1.21112-1.38763,4.61829-1.15765,6.35571.30048,2.2699,1.95374,4.01721,2.32886,6.3717.415,2.60474.30371,2.58759,2.91327,2.35693,3.64978-.32257,8.49768,1.6554,11.4436,3.57343,3.77264,2.4563,8.41534,1.30591,11.96265,4.0741a14.73861,14.73861,0,0,0,2.04584,1.783c1.42407.70508,2.94312.12415,4.47339.36462,2.05725.32324,3.76886,2.13745,4.86658.00677.31836-.61792.16376-1.50842.49323-2.17615.30389-.616.8515-1.08856,1.171-1.78125,1.03186-2.23743.28687-2.84857-.2356-4.90759-.19623-.77332.06323-1.60394-.08356-2.38306-.16583-.87994-.8327-1.42584-1.01978-2.13507a7.16915,7.16915,0,0,1,.91492-5.10944c.75641-1.37689,2.32715-2.531,2.86578-3.9964.79138-2.15308-.56323-4.44092-1.24567-6.29846C90.26295,96.08785,89.49555,95.46176,89.02864,94.61795Z"/></svg>