<?xml version="1.0" encoding="iso-8859-1"?>
<!-- Uploaded to: SVG Repo, www.svgrepo.com, Generator: SVG Repo Mixer Tools -->
<svg fill="#000000" height="800px" width="800px" version="1.1" id="Layer_1" xmlns="http://www.w3.org/2000/svg" xmlns:xlink="http://www.w3.org/1999/xlink" 
	 viewBox="0 0 512.232 512.232" xml:space="preserve">
<g>
	<g>
		<path d="M508.116,196.116c-27.98,0-39.5-4.388-57.016-11.056c-24.508-9.332-55.008-20.944-110.948-20.944
			c-55.984,0-86.524,11.624-111.112,20.984c-18.036,6.868-28.924,11.016-56.952,11.016c-28,0-38.872-4.14-56.956-11.028
			l-1.016-0.388c-24.08-9.168-54.044-20.584-110-20.584c-2.212,0-4,1.792-4,4v144c0,2.208,1.788,4,4,4
			c27.976,0,39.492,4.384,57.008,11.056c24.504,9.332,55.004,20.944,110.928,20.944c56,0,86.544-11.632,111.112-20.988
			c18.036-6.868,28.92-11.012,56.952-11.012c28.02,0,38.904,4.144,56.968,11.024l1,0.38c24.092,9.176,54.068,20.596,110.032,20.596
			c2.212,0,4-1.792,4-4v-144C512.116,197.908,510.328,196.116,508.116,196.116z M504.116,340.1
			c-51.936-0.532-80.288-11.332-103.184-20.052l-1.036-0.396c-18.884-7.196-30.288-11.536-59.78-11.536
			c-29.504,0-40.908,4.34-59.828,11.548c-23.928,9.112-53.708,20.452-108.236,20.452c-54.456,0-84.188-11.324-108.172-20.456
			c-18.416-7.016-30.464-11.132-55.764-11.516V172.136c51.92,0.532,80.268,11.324,103.152,20.044l1.084,0.412
			c18.872,7.188,30.268,11.524,59.736,11.524c29.496,0,40.904-4.344,59.848-11.556c23.928-9.112,53.704-20.444,108.216-20.444
			c54.472,0,84.212,11.324,108.184,20.452c18.424,7.016,30.476,11.136,55.78,11.52V340.1z"/>
	</g>
</g>
<g>
	<g>
		<path d="M262.072,246.8c-0.672-2.108-2.92-3.272-5.028-2.596c-16.344,5.208-42.936,12.128-84.984,12.128
			c-54.536,0-84.308-11.344-108.24-20.46c-18.908-7.196-30.324-11.54-59.82-11.54c-2.212,0-4,1.792-4,4c0,2.208,1.788,4,4,4
			c28.024,0,38.92,4.144,56.98,11.02c24.54,9.348,55.076,20.98,111.08,20.98c43.164,0,70.56-7.136,87.416-12.508
			C261.58,251.156,262.74,248.904,262.072,246.8z"/>
	</g>
</g>
<g>
	<g>
		<path d="M508.228,256.332c-54.524,0-84.308-11.34-108.244-20.452c-18.912-7.2-30.324-11.548-59.844-11.548
			c-17.784,0-30.168,1.58-42.748,5.444c-2.108,0.652-3.296,2.888-2.648,5c0.648,2.108,2.876,3.292,5,2.648
			c9.944-3.056,20.616-5.092,40.396-5.092c28.048,0,38.944,4.152,57.008,11.028c24.54,9.344,55.084,20.972,111.08,20.972
			c2.212,0,4-1.792,4-4S510.44,256.332,508.228,256.332z"/>
	</g>
</g>
<g>
	<g>
		<path d="M508.232,276.06c-54.528,0-84.312-11.336-108.244-20.448c-18.916-7.204-30.332-11.552-59.844-11.552
			c-29.508,0-40.924,4.348-59.848,11.552c-23.932,9.112-53.712,20.448-108.236,20.448c-54.536,0-84.308-11.34-108.248-20.46
			c-18.904-7.196-30.316-11.54-59.808-11.54c-2.212,0-4,1.792-4,4s1.788,4,4,4c28.02,0,38.912,4.148,56.98,11.024
			c24.536,9.344,55.068,20.976,111.08,20.976c55.996,0,86.536-11.628,111.096-20.976c18.052-6.876,28.948-11.024,56.984-11.024
			c28.044,0,38.94,4.152,57,11.028c24.54,9.344,55.084,20.972,111.084,20.972c2.212,0,4.004-1.792,4.004-4
			S510.444,276.06,508.232,276.06z"/>
	</g>
</g>
<g>
	<g>
		<path d="M508.224,320c-41.284,0-61.364-7.648-82.62-15.74c-9.412-3.588-19.148-7.296-30.764-10.224
			c-2.152-0.54-4.316,0.756-4.856,2.9c-0.536,2.14,0.76,4.316,2.904,4.856c11.16,2.812,20.672,6.436,29.872,9.94
			c21,7.992,42.712,16.26,85.468,16.26c2.212,0,3.996-1.784,3.996-3.992S510.436,320,508.224,320z"/>
	</g>
</g>
<g>
	<g>
		<path d="M372.768,289.888c-10.052-1.28-20.72-1.9-32.62-1.9c-37.96,0-59.168,6.576-76.072,12.74
			c-2.076,0.756-3.144,3.052-2.388,5.128c0.588,1.624,2.124,2.632,3.756,2.632c0.456,0,0.92-0.08,1.376-0.248
			c16.256-5.924,36.676-12.252,73.328-12.252c11.556,0,21.896,0.6,31.612,1.836c2.224,0.284,4.196-1.272,4.472-3.464
			C376.512,292.168,374.96,290.168,372.768,289.888z"/>
	</g>
</g>
<g>
	<g>
		<path d="M236.58,315.04c-0.628-2.116-2.836-3.328-4.968-2.704c-17.94,5.296-36.304,7.66-59.552,7.66
			c-31.404,0-50.208-4.676-63.084-8.748c-2.116-0.668-4.352,0.504-5.02,2.608c-0.668,2.104,0.5,4.352,2.604,5.02
			c13.42,4.244,33,9.116,65.5,9.116c24.048,0,43.112-2.464,61.816-7.984C235.996,319.384,237.204,317.16,236.58,315.04z"/>
	</g>
</g>
<g>
	<g>
		<path d="M75.34,299.048c-15.796-5.468-36.624-11.06-71.34-11.06c-2.212,0-4,1.792-4,4s1.788,4,4,4
			c33.44,0,52.792,5.104,68.724,10.62c0.432,0.152,0.876,0.224,1.308,0.224c1.66,0,3.208-1.04,3.78-2.696
			C78.536,302.048,77.424,299.772,75.34,299.048z"/>
	</g>
</g>
<g>
	<g>
		<path d="M508.228,216.02c-41.288,0-61.368-7.648-82.624-15.74c-12.924-4.92-26.288-10.008-44.564-13.132
			c-2.172-0.368-4.24,1.092-4.612,3.268c-0.376,2.176,1.088,4.244,3.268,4.616c17.504,2.988,29.92,7.716,43.064,12.72
			c20.996,7.992,42.708,16.26,85.468,16.26c2.212,0,4-1.784,4-3.992S510.44,216.02,508.228,216.02z"/>
	</g>
</g>
<g>
	<g>
		<path d="M360.328,184.684c-6.34-0.448-13.132-0.676-20.18-0.676c-15.768,0-29.62,1.108-42.34,3.384
			c-2.176,0.392-3.628,2.468-3.236,4.644c0.348,1.936,2.028,3.296,3.932,3.296c0.232,0,0.468-0.02,0.716-0.072
			c12.252-2.188,25.64-3.256,40.932-3.256c6.86,0,13.46,0.224,19.616,0.66c2.188,0.112,4.112-1.508,4.268-3.708
			C364.192,186.756,362.536,184.84,360.328,184.684z"/>
	</g>
</g>
<g>
	<g>
		<path d="M255.724,204.168c-0.78-2.068-3.084-3.112-5.156-2.332c-20.552,7.756-40.644,14.176-78.512,14.176
			c-41.276,0-61.352-7.644-82.604-15.736c-2.364-0.9-4.72-1.8-7.116-2.688c-2.06-0.768-4.372,0.284-5.14,2.356
			c-0.768,2.072,0.284,4.376,2.36,5.144c2.368,0.88,4.712,1.772,7.052,2.664c20.996,7.996,42.704,16.26,85.452,16.26
			c39.164,0,60.824-6.952,81.336-14.688C255.464,208.544,256.504,206.236,255.724,204.168z"/>
	</g>
</g>
<g>
	<g>
		<path d="M56.184,189.436c-15.62-3.7-32.204-5.424-52.18-5.424c-2.212,0-4,1.792-4,4c0,2.208,1.788,4,4,4
			c19.34,0,35.332,1.656,50.336,5.212c0.308,0.072,0.62,0.108,0.924,0.108c1.812,0,3.452-1.24,3.888-3.08
			C59.664,192.104,58.332,189.944,56.184,189.436z"/>
	</g>
</g>
</svg>