<?xml version="1.0" ?><!DOCTYPE svg  PUBLIC '-//W3C//DTD SVG 1.1//EN'  'http://www.w3.org/Graphics/SVG/1.1/DTD/svg11.dtd'><svg xmlns="http://www.w3.org/2000/svg" xmlns:xlink="http://www.w3.org/1999/xlink" xmlns:serif="http://www.serif.com/" width="100%" height="100%" viewBox="0 0 512 512" version="1.1" xml:space="preserve" style="fill-rule:evenodd;clip-rule:evenodd;stroke-linejoin:round;stroke-miterlimit:2;"><g transform="matrix(1,0,0,1,-2248,-2248)"><g id="Icons"><path d="M2414.05,2658.96C2411.59,2669.19 2407.22,2678.46 2400.72,2686.66C2398.64,2685.69 2396.53,2685.04 2394.28,2684.73C2389.44,2684.06 2384.62,2684.59 2379.55,2685.13C2383.25,2686.17 2386.74,2687.18 2390.14,2688.64C2386.66,2689.2 2383.36,2690.03 2380.19,2691.1C2373.14,2693.48 2366.97,2696.89 2361.25,2701.12C2367.53,2698.3 2374.06,2696.41 2381.2,2695.52C2384.85,2695.07 2388.58,2694.98 2392.52,2695.12C2392.19,2695.76 2391.89,2696.45 2391.65,2697.2C2390.84,2699.71 2390.45,2702.29 2390.39,2705.57C2391.95,2703.14 2393.51,2701.47 2395.16,2699.81C2396.83,2698.15 2398.56,2697.23 2400.39,2696.42C2401.1,2696.11 2401.84,2695.95 2402.59,2695.74C2402.67,2695.71 2402.76,2695.69 2402.84,2695.66L2402.84,2695.66C2404.09,2695.28 2405.37,2694.88 2406.85,2694.72C2408.38,2694.56 2409.91,2694.34 2411.71,2694.38C2414.26,2694.43 2416.75,2694.49 2419.85,2695.03C2417.47,2692.87 2415.42,2691.31 2413.16,2689.99C2411.98,2689.3 2410.88,2688.84 2409.72,2688.42C2409.63,2688.39 2409.55,2688.36 2409.46,2688.33C2415.23,2680.21 2419.26,2671.22 2421.68,2661.43C2421.77,2661.39 2421.85,2661.35 2421.93,2661.3C2425.4,2659.5 2432.14,2653.08 2433.01,2652.32C2437.69,2648.2 2445.58,2641.99 2453.58,2638.41C2458.21,2636.34 2462.85,2635.06 2466.75,2636.22C2479.43,2640.01 2489.74,2651.5 2500.11,2659.2C2503.76,2661.91 2507.59,2664.38 2511.33,2666.95C2512.43,2667.72 2514.05,2669.85 2515.19,2670.74C2515.37,2670.88 2515.56,2671.01 2515.74,2671.12L2519.34,2685.85C2519.11,2685.81 2518.87,2685.78 2518.64,2685.75C2514.27,2685.24 2509.99,2685.8 2505.44,2686.39C2508.39,2687.29 2511.16,2688.17 2513.87,2689.33C2511.11,2689.85 2508.49,2690.57 2505.95,2691.46C2499.68,2693.67 2494.22,2696.77 2489.15,2700.61C2494.78,2698.18 2500.59,2696.59 2506.96,2695.88C2510.05,2695.53 2513.18,2695.49 2516.49,2695.63C2516.31,2696.06 2516.14,2696.52 2516,2697C2515.32,2699.3 2515.04,2701.59 2515.09,2704.57C2516.56,2702.43 2517.99,2701.03 2519.53,2699.58C2521.03,2698.16 2522.58,2697.46 2524.2,2696.78C2524.78,2696.53 2525.38,2696.43 2525.98,2696.27C2526.09,2696.24 2526.19,2696.21 2526.3,2696.18C2527.37,2695.86 2528.45,2695.46 2529.72,2695.31C2531.07,2695.14 2532.39,2694.88 2533.99,2694.87C2536.3,2694.84 2538.48,2694.8 2541.3,2695.2C2539.19,2693.16 2537.43,2691.74 2535.41,2690.47C2534.36,2689.81 2533.38,2689.39 2532.33,2688.98C2530.89,2688.43 2529.49,2688.18 2528.13,2688.09L2523.03,2667.26C2523.33,2665.06 2523.21,2662.85 2523.14,2660.63C2523.08,2658.87 2523.02,2657.1 2523.61,2655.33C2525.07,2650.99 2528.08,2647.86 2531.43,2645.03C2535.4,2641.69 2539.85,2638.76 2543.55,2635.33C2545.6,2633.42 2548.58,2629.8 2551.85,2627.34C2553.22,2626.31 2554.57,2625.35 2555.97,2625.49C2557.97,2625.7 2559.95,2626.76 2561.88,2628.07C2565.47,2630.51 2568.79,2633.88 2571.37,2636.26C2579.26,2643.56 2588.21,2650.73 2598.57,2654.16C2601.38,2655.09 2605.43,2656.17 2609.23,2656.38C2612.28,2656.55 2615.18,2656.13 2617.43,2654.97C2618.14,2654.61 2619.01,2653.92 2619.51,2652.59C2619.7,2652.07 2619.88,2651.16 2619.93,2650.05C2619.98,2648.93 2619.98,2646.81 2619.97,2646.28C2620.35,2645.21 2621.37,2644.55 2622.12,2643.71C2623.37,2642.33 2624.41,2640.85 2624.91,2639.05C2625.41,2637.27 2625.33,2635.38 2625.01,2633.44C2624.77,2631.95 2624.19,2630.43 2624.52,2629C2624.88,2627.43 2626.01,2626.23 2627.01,2624.95C2628.1,2623.55 2629.15,2622.13 2629.88,2620.56C2632.86,2614.23 2635.58,2604.07 2636.57,2597.11C2636.86,2595.09 2636.45,2592.93 2635.68,2590.75C2634.97,2588.74 2633.84,2586.7 2633.62,2584.78C2633.31,2582.03 2634.37,2575.17 2635.91,2569.38C2636.81,2565.97 2637.72,2562.9 2638.91,2561.69C2643.05,2557.45 2648.85,2556 2654.73,2554.6C2661.87,2552.91 2669.17,2551.38 2675.01,2547.31C2677.85,2545.33 2679.79,2542.85 2681.57,2540.25C2682.94,2538.25 2684.2,2536.16 2686.03,2534.37C2687.86,2532.58 2690.11,2531.22 2692.24,2529.75C2694.97,2527.87 2697.54,2525.82 2699.41,2523.06C2700.77,2521.06 2701.5,2518.43 2702.21,2515.85C2702.6,2514.4 2702.87,2512.93 2703.78,2512C2705.32,2510.42 2707.27,2509.36 2709.18,2508.22C2711.75,2506.7 2714.28,2505.1 2716.32,2502.82C2718.68,2500.16 2719.99,2496.92 2721.07,2493.54C2721.89,2490.98 2722.55,2488.32 2723.9,2486.02C2725.06,2484.03 2726.72,2482.45 2728.36,2480.84C2730.49,2478.75 2732.61,2476.64 2734.19,2474.06C2737.47,2468.7 2742.08,2451.72 2743.21,2445.29C2745.52,2432.14 2745.88,2418.57 2746.5,2405.41C2746.81,2398.95 2748.85,2392.62 2747.51,2386.05C2746.79,2382.5 2744.99,2379.42 2743.08,2376.4C2741.66,2374.16 2740.15,2371.96 2739.52,2369.38C2738.7,2366.05 2738.78,2362.37 2738.64,2358.74C2738.47,2354.28 2737.98,2349.88 2736.08,2345.99C2730.27,2334.09 2712.76,2322.13 2701.64,2315.68C2698.53,2313.88 2695.89,2311.21 2693.14,2308.71C2689.8,2305.66 2686.33,2302.86 2682.21,2301.35C2679.81,2300.48 2676.91,2300.33 2673.87,2300.56C2670.4,2300.81 2666.72,2301.59 2663.84,2301.42C2656.33,2300.98 2649.19,2298.31 2641.58,2298.44C2637.88,2298.5 2634.55,2299.56 2631.28,2300.91C2628.61,2302.03 2625.98,2303.36 2623.14,2304.21C2617.22,2306 2610.7,2305.77 2604.97,2308.19C2598.98,2310.73 2593.11,2316.22 2587.79,2322.86C2580.41,2332.08 2573.98,2343.48 2569.32,2350.86C2567.37,2353.96 2565.72,2356.98 2563.85,2359.69C2561.48,2363.1 2558.72,2365.97 2553.99,2367.46C2547.59,2369.48 2540.49,2368.39 2533.39,2366.74C2525.42,2364.89 2517.46,2362.26 2510.31,2361.36C2485.1,2358.16 2457.66,2362.04 2434.78,2373.25C2418.03,2381.45 2390.25,2396.71 2377.54,2409.83C2372.78,2414.74 2368.28,2422.32 2362.99,2428.7C2359,2433.51 2354.61,2437.74 2348.9,2438.64C2348.34,2437.17 2347.47,2434.87 2347.39,2434.55C2345.36,2426.35 2346.8,2418.07 2348.91,2410.01C2354.46,2388.9 2369.08,2372.49 2380.17,2354.2C2387.49,2342.14 2392.61,2328.61 2383.8,2315.77C2378.78,2308.46 2371.91,2304.62 2363.61,2301.92C2352.43,2298.28 2343.46,2297.82 2335.63,2299.75C2324.08,2302.6 2314.9,2310.75 2304.78,2322.52C2300.47,2327.53 2295.5,2331.55 2292.41,2337.51C2287.63,2346.73 2287.03,2358.35 2285.9,2368.47C2285.7,2370.21 2286.66,2371.87 2288.26,2372.58C2289.85,2373.28 2291.72,2372.87 2292.88,2371.56C2297.35,2366.48 2307.27,2358.38 2315.22,2354.77C2316.93,2354 2318.53,2353.43 2319.93,2353.24C2320.53,2353.15 2321.06,2353.02 2321.44,2353.27C2321.59,2353.37 2321.57,2353.6 2321.62,2353.84C2321.7,2354.22 2321.74,2354.65 2321.74,2355.14C2321.75,2356.63 2321.44,2358.49 2320.83,2360.79C2317.11,2374.66 2306.42,2385.76 2300.66,2398.69C2298.2,2404.23 2295.2,2410.2 2294.05,2416.19C2293.71,2417.99 2293.7,2420.22 2293.61,2422.4C2293.54,2423.77 2293.52,2425.14 2293,2426.14C2291.08,2429.87 2288.06,2433.15 2284.98,2436.43C2281.47,2440.17 2277.87,2443.89 2275.25,2447.97C2260.69,2470.64 2257.53,2494.41 2261.67,2520.59C2269.44,2569.73 2290.1,2602.37 2338.67,2619.17C2348.1,2622.43 2358.83,2623.95 2369.33,2625.93C2379.13,2627.77 2388.73,2630 2396.62,2634.86C2401.9,2638.11 2406.94,2642.25 2409.81,2647.83C2410.72,2649.59 2411.35,2652.54 2412.24,2655.06C2412.76,2656.51 2413.36,2657.85 2414.05,2658.96ZM2611.94,2648.36C2611.22,2648.44 2610.45,2648.43 2609.67,2648.39C2606.61,2648.22 2603.35,2647.32 2601.08,2646.57C2591.8,2643.49 2583.87,2636.93 2576.8,2630.39C2573.97,2627.77 2570.3,2624.12 2566.37,2621.45C2563.27,2619.35 2559.99,2617.86 2556.78,2617.53C2553.59,2617.21 2550.18,2618.59 2547.04,2620.95C2543.54,2623.58 2540.3,2627.42 2538.1,2629.47C2534.49,2632.82 2530.14,2635.66 2526.28,2638.92C2521.8,2642.69 2517.97,2647 2516.03,2652.79C2515.24,2655.15 2515.08,2657.5 2515.12,2659.86C2511.69,2657.51 2508.21,2655.26 2504.88,2652.78C2493.81,2644.56 2482.58,2632.6 2469.03,2628.56C2463.51,2626.91 2456.87,2628.18 2450.32,2631.11C2441.55,2635.03 2432.87,2641.79 2427.73,2646.3C2427.11,2646.85 2423.06,2650.85 2419.98,2653.09C2419.77,2652.48 2419.58,2651.81 2419.37,2651.14C2418.55,2648.57 2417.81,2645.89 2416.92,2644.17C2413.38,2637.29 2407.32,2632.05 2400.82,2628.05C2392.12,2622.7 2381.6,2620.1 2370.8,2618.06C2360.7,2616.16 2350.36,2614.75 2341.29,2611.61C2295.91,2595.91 2276.83,2565.25 2269.57,2519.34C2265.75,2495.18 2268.55,2473.22 2281.98,2452.3C2284.35,2448.61 2287.64,2445.28 2290.81,2441.91C2294.42,2438.07 2297.87,2434.16 2300.11,2429.81C2300.94,2428.21 2301.35,2426.21 2301.52,2424.08C2301.69,2421.89 2301.56,2419.52 2301.91,2417.7C2302.95,2412.29 2305.74,2406.94 2307.97,2401.95C2313.9,2388.64 2324.73,2377.14 2328.55,2362.86C2329.82,2358.12 2329.96,2354.65 2329.46,2352.22C2328.95,2349.8 2327.83,2348.12 2326.39,2346.99C2324.28,2345.32 2321.19,2344.73 2317.45,2345.56C2311.06,2346.97 2301.99,2352.88 2294.94,2358.68L2294.94,2358.68C2295.66,2352.57 2296.79,2346.44 2299.51,2341.19C2302.31,2335.79 2306.94,2332.27 2310.84,2327.74C2319.69,2317.46 2327.45,2310.01 2337.54,2307.52C2344.14,2305.89 2351.7,2306.45 2361.13,2309.52C2367.69,2311.66 2373.24,2314.52 2377.2,2320.29C2384.05,2330.28 2379.02,2340.68 2373.33,2350.06C2361.84,2368.99 2346.92,2386.11 2341.17,2407.98C2338.72,2417.33 2337.26,2426.95 2339.63,2436.47C2339.81,2437.19 2341.37,2442.37 2342.78,2444.41C2344.09,2446.31 2345.8,2446.84 2346.99,2446.82C2354.38,2446.7 2360.45,2442.99 2365.68,2437.67C2372.39,2430.85 2377.64,2421.22 2383.29,2415.39C2395.48,2402.81 2422.23,2388.31 2438.3,2380.43C2459.81,2369.89 2485.61,2366.29 2509.3,2369.29C2516.2,2370.17 2523.88,2372.74 2531.57,2374.53C2540.13,2376.52 2548.69,2377.52 2556.39,2375.09C2566.94,2371.76 2570.58,2363.85 2576.09,2355.13C2580.62,2347.95 2586.85,2336.83 2594.04,2327.86C2598.43,2322.37 2603.14,2317.66 2608.09,2315.56C2613.55,2313.24 2619.8,2313.58 2625.45,2311.87C2628.55,2310.94 2631.43,2309.52 2634.35,2308.3C2636.69,2307.33 2639.06,2306.48 2641.71,2306.44C2649.12,2306.32 2656.07,2308.98 2663.37,2309.41C2666.09,2309.56 2669.44,2309.05 2672.75,2308.69C2675.18,2308.43 2677.58,2308.18 2679.46,2308.87C2682.62,2310.02 2685.19,2312.29 2687.76,2314.62C2690.92,2317.51 2694.04,2320.52 2697.62,2322.6C2707.63,2328.4 2723.66,2338.8 2728.89,2349.5C2730.31,2352.41 2730.51,2355.72 2730.65,2359.06C2730.81,2363.23 2730.81,2367.45 2731.75,2371.29C2732.59,2374.71 2734.44,2377.7 2736.32,2380.67C2737.71,2382.87 2739.15,2385.05 2739.67,2387.64C2740.87,2393.55 2738.78,2399.22 2738.51,2405.03C2737.9,2417.86 2737.59,2431.09 2735.33,2443.9C2734.31,2449.7 2730.33,2465.05 2727.37,2469.89C2726.14,2471.89 2724.43,2473.5 2722.76,2475.13C2720.61,2477.24 2718.51,2479.38 2716.99,2481.99C2715.35,2484.79 2714.45,2487.99 2713.45,2491.11C2712.72,2493.41 2711.96,2495.68 2710.35,2497.49C2708.87,2499.15 2706.97,2500.24 2705.11,2501.34C2702.59,2502.84 2700.09,2504.33 2698.06,2506.41C2696.56,2507.95 2695.58,2510.05 2694.88,2512.37C2694.24,2514.49 2693.94,2516.88 2692.8,2518.56C2691.48,2520.49 2689.61,2521.85 2687.7,2523.17C2685.19,2524.9 2682.59,2526.55 2680.44,2528.65C2678.22,2530.82 2676.64,2533.3 2674.97,2535.73C2673.72,2537.55 2672.43,2539.35 2670.43,2540.74C2665.4,2544.25 2659.04,2545.36 2652.89,2546.82C2645.49,2548.57 2638.39,2550.77 2633.18,2556.1C2631.8,2557.52 2630.31,2560.42 2629.13,2564.07C2626.75,2571.4 2625.24,2581.88 2625.68,2585.68C2625.92,2587.82 2626.87,2590.12 2627.75,2592.38C2628.24,2593.63 2628.82,2594.83 2628.65,2595.97C2627.76,2602.26 2625.32,2611.45 2622.64,2617.17C2621.83,2618.9 2620.4,2620.33 2619.27,2621.92C2618.11,2623.54 2617.17,2625.26 2616.72,2627.21C2616.31,2629 2616.44,2630.87 2616.76,2632.75C2617.01,2634.17 2617.57,2635.59 2617.21,2636.89C2616.87,2638.09 2615.75,2638.8 2614.93,2639.72C2613.68,2641.11 2612.64,2642.63 2612.16,2644.49C2612.05,2644.94 2611.98,2646.88 2611.94,2648.36Z"/></g></g></svg>